<mxfile host="app.diagrams.net" agent="Mozilla/5.0 (Windows NT 10.0; Win64; x64) AppleWebKit/537.36 (KHTML, like Gecko) Chrome/141.0.0.0 Safari/537.36" version="28.2.8">
  <diagram name="Page-1" id="BOgb2yeXGjaKw8uL1MBH">
    <mxGraphModel dx="1240" dy="686" grid="1" gridSize="10" guides="1" tooltips="1" connect="1" arrows="1" fold="1" page="1" pageScale="1" pageWidth="850" pageHeight="1100" math="0" shadow="0">
      <root>
        <mxCell id="0" />
        <mxCell id="1" parent="0" />
        <mxCell id="USaXI382ov4VCFaaFqeK-36" style="edgeStyle=orthogonalEdgeStyle;rounded=0;orthogonalLoop=1;jettySize=auto;html=1;entryX=0;entryY=0.5;entryDx=0;entryDy=0;" edge="1" parent="1" source="USaXI382ov4VCFaaFqeK-1" target="USaXI382ov4VCFaaFqeK-4">
          <mxGeometry relative="1" as="geometry" />
        </mxCell>
        <mxCell id="USaXI382ov4VCFaaFqeK-1" value="Nhân viên thư viện&amp;nbsp;" style="shape=umlActor;verticalLabelPosition=bottom;verticalAlign=top;html=1;outlineConnect=0;" vertex="1" parent="1">
          <mxGeometry x="60" y="310" width="30" height="60" as="geometry" />
        </mxCell>
        <mxCell id="USaXI382ov4VCFaaFqeK-2" value="" style="whiteSpace=wrap;html=1;aspect=fixed;fillColor=default;rounded=0;glass=0;shadow=0;gradientColor=none;strokeColor=none;" vertex="1" parent="1">
          <mxGeometry x="220" y="140" width="430" height="430" as="geometry" />
        </mxCell>
        <mxCell id="USaXI382ov4VCFaaFqeK-3" value="Manager Library System" style="text;html=1;whiteSpace=wrap;strokeColor=none;fillColor=none;align=center;verticalAlign=middle;rounded=0;" vertex="1" parent="1">
          <mxGeometry x="365" y="150" width="140" height="30" as="geometry" />
        </mxCell>
        <mxCell id="USaXI382ov4VCFaaFqeK-4" value="Đăng nhập" style="ellipse;whiteSpace=wrap;html=1;" vertex="1" parent="1">
          <mxGeometry x="250" y="360" width="120" height="80" as="geometry" />
        </mxCell>
        <mxCell id="USaXI382ov4VCFaaFqeK-5" value="Trả sách" style="ellipse;whiteSpace=wrap;html=1;" vertex="1" parent="1">
          <mxGeometry x="470" y="330" width="120" height="80" as="geometry" />
        </mxCell>
        <mxCell id="USaXI382ov4VCFaaFqeK-6" value="Mượn sách" style="ellipse;whiteSpace=wrap;html=1;" vertex="1" parent="1">
          <mxGeometry x="470" y="220" width="120" height="80" as="geometry" />
        </mxCell>
        <mxCell id="USaXI382ov4VCFaaFqeK-22" value="&lt;div style=&quot;text-align: start;&quot;&gt;&lt;span style=&quot;background-color: light-dark(#ffffff, var(--ge-dark-color, #121212)); white-space: pre-wrap;&quot;&gt;&lt;font face=&quot;Arial, sans-serif&quot;&gt;&amp;nbsp;&amp;lt;&amp;lt;include&amp;gt;&amp;gt;&lt;/font&gt;&lt;/span&gt;&lt;/div&gt;" style="endArrow=open;endSize=12;dashed=1;html=1;rounded=0;exitX=1;exitY=0.5;exitDx=0;exitDy=0;entryX=0.06;entryY=0.72;entryDx=0;entryDy=0;entryPerimeter=0;" edge="1" parent="1" source="USaXI382ov4VCFaaFqeK-4" target="USaXI382ov4VCFaaFqeK-6">
          <mxGeometry x="0.0005" width="160" relative="1" as="geometry">
            <mxPoint x="380" y="329.52" as="sourcePoint" />
            <mxPoint x="540" y="329.52" as="targetPoint" />
            <mxPoint as="offset" />
          </mxGeometry>
        </mxCell>
        <mxCell id="USaXI382ov4VCFaaFqeK-24" value="&lt;div style=&quot;text-align: start;&quot;&gt;&lt;span style=&quot;background-color: light-dark(#ffffff, var(--ge-dark-color, #121212)); color: light-dark(rgb(0, 0, 0), rgb(255, 255, 255));&quot;&gt;&amp;nbsp;&lt;/span&gt;&lt;span style=&quot;background-color: light-dark(#ffffff, var(--ge-dark-color, #121212)); white-space: pre-wrap;&quot;&gt;&lt;font face=&quot;Arial, sans-serif&quot;&gt;&amp;lt;&amp;lt;include&amp;gt;&amp;gt;&lt;/font&gt;&lt;/span&gt;&lt;/div&gt;" style="endArrow=open;endSize=12;dashed=1;html=1;rounded=0;entryX=0.068;entryY=0.333;entryDx=0;entryDy=0;entryPerimeter=0;exitX=1;exitY=0.5;exitDx=0;exitDy=0;" edge="1" parent="1" source="USaXI382ov4VCFaaFqeK-4" target="USaXI382ov4VCFaaFqeK-5">
          <mxGeometry width="160" relative="1" as="geometry">
            <mxPoint x="490" y="359.99818181818154" as="sourcePoint" />
            <mxPoint x="407" y="369.43" as="targetPoint" />
          </mxGeometry>
        </mxCell>
        <mxCell id="USaXI382ov4VCFaaFqeK-29" value="Tìm sách&lt;span style=&quot;color: rgba(0, 0, 0, 0); font-family: monospace; font-size: 0px; text-align: start; text-wrap-mode: nowrap;&quot;&gt;%3CmxGraphModel%3E%3Croot%3E%3CmxCell%20id%3D%220%22%2F%3E%3CmxCell%20id%3D%221%22%20parent%3D%220%22%2F%3E%3CmxCell%20id%3D%222%22%20value%3D%22Tr%E1%BA%A3%20s%C3%A1ch%22%20style%3D%22ellipse%3BwhiteSpace%3Dwrap%3Bhtml%3D1%3B%22%20vertex%3D%221%22%20parent%3D%221%22%3E%3CmxGeometry%20x%3D%22470%22%20y%3D%22330%22%20width%3D%22120%22%20height%3D%2280%22%20as%3D%22geometry%22%2F%3E%3C%2FmxCell%3E%3C%2Froot%3E%3C%2FmxGraphModel%3E&lt;/span&gt;" style="ellipse;whiteSpace=wrap;html=1;" vertex="1" parent="1">
          <mxGeometry x="470" y="420" width="120" height="80" as="geometry" />
        </mxCell>
        <mxCell id="USaXI382ov4VCFaaFqeK-31" value="&lt;div style=&quot;text-align: start;&quot;&gt;&lt;span style=&quot;background-color: light-dark(#ffffff, var(--ge-dark-color, #121212)); color: light-dark(rgb(0, 0, 0), rgb(255, 255, 255));&quot;&gt;&amp;nbsp;&lt;/span&gt;&lt;span style=&quot;background-color: light-dark(#ffffff, var(--ge-dark-color, #121212)); white-space: pre-wrap;&quot;&gt;&lt;font face=&quot;Arial, sans-serif&quot;&gt;&amp;lt;&amp;lt;include&amp;gt;&amp;gt;&lt;/font&gt;&lt;/span&gt;&lt;/div&gt;" style="endArrow=open;endSize=12;dashed=1;html=1;rounded=0;entryX=0.014;entryY=0.438;entryDx=0;entryDy=0;entryPerimeter=0;exitX=1;exitY=0.5;exitDx=0;exitDy=0;" edge="1" parent="1" source="USaXI382ov4VCFaaFqeK-4" target="USaXI382ov4VCFaaFqeK-29">
          <mxGeometry width="160" relative="1" as="geometry">
            <mxPoint x="370" y="440" as="sourcePoint" />
            <mxPoint x="488" y="460" as="targetPoint" />
          </mxGeometry>
        </mxCell>
        <mxCell id="USaXI382ov4VCFaaFqeK-35" style="edgeStyle=orthogonalEdgeStyle;rounded=0;orthogonalLoop=1;jettySize=auto;html=1;entryX=0;entryY=0.5;entryDx=0;entryDy=0;" edge="1" parent="1" source="USaXI382ov4VCFaaFqeK-33" target="USaXI382ov4VCFaaFqeK-4">
          <mxGeometry relative="1" as="geometry" />
        </mxCell>
        <mxCell id="USaXI382ov4VCFaaFqeK-33" value="Độc giả" style="shape=umlActor;verticalLabelPosition=bottom;verticalAlign=top;html=1;" vertex="1" parent="1">
          <mxGeometry x="70" y="530" width="40" height="60" as="geometry" />
        </mxCell>
      </root>
    </mxGraphModel>
  </diagram>
</mxfile>
